<?xml version="1.0" encoding="UTF-8" standalone="no"?>
<svg
   xmlns:dc="http://purl.org/dc/elements/1.1/"
   xmlns:cc="http://creativecommons.org/ns#"
   xmlns:rdf="http://www.w3.org/1999/02/22-rdf-syntax-ns#"
   xmlns:svg="http://www.w3.org/2000/svg"
   xmlns="http://www.w3.org/2000/svg"
   xmlns:sodipodi="http://sodipodi.sourceforge.net/DTD/sodipodi-0.dtd"
   xmlns:inkscape="http://www.inkscape.org/namespaces/inkscape"
   version="1.1"
   viewBox="0 0 32 32"
   enable-background="new 0 0 32 32"
   id="svg3388"
   inkscape:version="0.91 r13725"
   sodipodi:docname="bus.svg">
  <metadata
     id="metadata3400">
    <rdf:RDF>
      <cc:Work
         rdf:about="">
        <dc:format>image/svg+xml</dc:format>
        <dc:type
           rdf:resource="http://purl.org/dc/dcmitype/StillImage" />
      </cc:Work>
    </rdf:RDF>
  </metadata>
  <rect
     style="fill:#ffff00;fill-opacity:1;fill-rule:evenodd;stroke:none;stroke-width:1px;stroke-linecap:butt;stroke-linejoin:miter;stroke-opacity:1"
     id="rect4208"
     width="28.055351"
     height="11.53327"
     x="1.9248722"
     y="5.9438334" />
  <rect
     style="fill:#aaaaaa;fill-opacity:1;fill-rule:evenodd;stroke:none;stroke-width:1px;stroke-linecap:butt;stroke-linejoin:miter;stroke-opacity:1"
     id="rect4217-7"
     width="2.3674264"
     height="12.310604"
     x="10.820784"
     y="10.191858" />
  <rect
     style="fill:#aaaaaa;fill-opacity:1;fill-rule:evenodd;stroke:none;stroke-width:1px;stroke-linecap:butt;stroke-linejoin:miter;stroke-opacity:1"
     id="rect4217"
     width="2.3674264"
     height="12.310604"
     x="14.820076"
     y="10.267046" />
  <rect
     style="fill:#aaaaaa;fill-opacity:1;fill-rule:evenodd;stroke:none;stroke-width:1px;stroke-linecap:butt;stroke-linejoin:miter;stroke-opacity:1"
     id="rect4217-9"
     width="4.7821994"
     height="5.9185586"
     x="0.73555642"
     y="-15.826326"
     transform="scale(1,-1)" />
  <rect
     transform="scale(1,-1)"
     y="-17.29413"
     x="21.947678"
     height="5.9185586"
     width="4.7821994"
     id="rect4249"
     style="fill:#aaaaaa;fill-opacity:1;fill-rule:evenodd;stroke:none;stroke-width:1px;stroke-linecap:butt;stroke-linejoin:miter;stroke-opacity:1" />
  <rect
     style="fill:#00aa00;fill-opacity:1;fill-rule:evenodd;stroke:none;stroke-width:1px;stroke-linecap:butt;stroke-linejoin:miter;stroke-opacity:1"
     id="rect3404"
     width="7.047883"
     height="5.110743"
     x="1.9783533"
     y="17.492075"
     ry="0" />
  <rect
     style="fill:#00aa00;fill-opacity:1;fill-rule:evenodd;stroke:none;stroke-width:1px;stroke-linecap:butt;stroke-linejoin:miter;stroke-opacity:1"
     id="rect4206"
     width="11.087023"
     height="5.1107483"
     x="18.959219"
     y="17.450859" />
  <defs
     id="defs3398" />
  <sodipodi:namedview
     pagecolor="#ffffff"
     bordercolor="#666666"
     borderopacity="1"
     objecttolerance="10"
     gridtolerance="10"
     guidetolerance="10"
     inkscape:pageopacity="0"
     inkscape:pageshadow="2"
     inkscape:window-width="1153"
     inkscape:window-height="718"
     id="namedview3396"
     showgrid="false"
     inkscape:zoom="16.01"
     inkscape:cx="13.945785"
     inkscape:cy="16.363067"
     inkscape:window-x="0"
     inkscape:window-y="0"
     inkscape:window-maximized="0"
     inkscape:current-layer="svg3388" />
  <path
     d="m 27,10.5 -5,0 c -0.552,0 -1,0.447 -1,1 l 0,5 c 0,0.553 0.448,1 1,1 l 5,0 c 0.552,0 1,-0.447 1,-1 l 0,-5 c 0,-0.553 -0.448,-1 -1,-1 z m -1,5 -3,0 0,-3 3,0 0,3 z m 3,-11 -26,0 c -1.657,0 -3,1.343 -3,3 l 0,14 c 0,1.657 1.343,3 3,3 l 1,0 c 0,1.657 1.343,3 3,3 1.657,0 3,-1.343 3,-3 l 12,0 c 0,1.657 1.343,3 3,3 1.657,0 3,-1.343 3,-3 l 1,0 c 1.657,0 3,-1.343 3,-3 l 0,-14 c 0,-1.657 -1.343,-3 -3,-3 z m -27,6 3,0 0,5 -3,0 0,-5 z m 5,15 c -0.552,0 -1,-0.447 -1,-1 l 2,0 c 0,0.553 -0.448,1 -1,1 z m 6,-3 -2,0 0,-12 2,0 0,12 z m 4,0 -2,0 0,-12 2,0 0,12 z m 8,3 c -0.552,0 -1,-0.447 -1,-1 l 2,0 c 0,0.553 -0.448,1 -1,1 z m 5,-4 c 0,0.553 -0.448,1 -1,1 l -10,0 0,-13 c 0,-0.553 -0.448,-1 -1,-1 l -8,0 c -0.552,0 -1,0.447 -1,1 l 0,13 -6,0 c -0.552,0 -1,-0.447 -1,-1 l 0,-4 4,0 c 0.552,0 1,-0.447 1,-1 l 0,-7 C 7,8.947 6.552,8.5 6,8.5 l -4,0 0,-1 c 0,-0.553 0.448,-1 1,-1 l 26,0 c 0.552,0 1,0.447 1,1 l 0,14 z"
     id="path3394"
     inkscape:connector-curvature="0"
     style="fill-rule:evenodd" />
</svg>
